<?xml version="1.0" standalone="no"?><!DOCTYPE svg PUBLIC "-//W3C//DTD SVG 1.1//EN" "http://www.w3.org/Graphics/SVG/1.1/DTD/svg11.dtd"><svg t="1511632630648" class="icon" style="" viewBox="0 0 1024 1024" version="1.1" xmlns="http://www.w3.org/2000/svg" p-id="2016" xmlns:xlink="http://www.w3.org/1999/xlink" width="32" height="32"><defs><style type="text/css"></style></defs><path d="M720.011636 954.181818c-57.041455 0-130.699636-38.004364-182.458182-69.911273-69.306182-42.705455-143.965091-101.771636-210.222545-166.330182l-0.232727-0.232727-21.038545-21.038545c-64.558545-66.280727-123.648-140.939636-166.330182-210.222545C107.845818 434.688 69.818182 361.029818 69.818182 303.965091c0-61.044364 43.659636-125.835636 62.440727-150.877091C146.897455 133.538909 198.074182 69.818182 241.547636 69.818182c17.873455 0 37.096727 11.682909 62.370909 37.888 22.341818 23.179636 43.799273 51.968 57.832727 72.075636 18.897455 26.949818 36.352 55.202909 49.152 79.499636 20.782545 39.330909 23.179636 56.226909 23.179636 65.489455 0 18.711273-9.774545 34.932364-29.044364 48.221091-12.683636 8.750545-27.904 15.313455-42.635636 21.713455-9.937455 4.305455-25.786182 11.147636-31.837091 15.988364 2.117818 8.936727 11.333818 30.533818 36.282182 67.141818 23.226182 34.094545 53.271273 71.074909 80.407273 98.932364 27.857455 27.136 64.814545 57.181091 98.955636 80.407273 36.584727 24.925091 58.181818 34.164364 67.118545 36.282182 4.817455-6.050909 11.682909-21.899636 15.988364-31.837091 6.353455-14.731636 12.962909-29.952 21.713455-42.635636 13.288727-19.269818 29.533091-29.044364 48.221091-29.044364 9.262545 0 26.158545 2.420364 65.489455 23.156364 24.296727 12.846545 52.549818 30.301091 79.499636 49.175273 20.084364 14.056727 48.896 35.490909 72.075636 57.832727C942.498909 745.355636 954.181818 764.602182 954.181818 782.452364c0 43.473455-63.720727 94.626909-83.246545 109.288727C845.893818 910.522182 781.102545 954.181818 720.011636 954.181818L720.011636 954.181818M363.915636 680.657455c63.557818 61.905455 134.958545 118.434909 201.076364 159.162182 64.069818 39.493818 120.599273 62.138182 155.066182 62.138182 30.673455 0 74.449455-18.757818 117.085091-50.129455 18.688-13.777455 35.677091-29.114182 47.872-43.170909 11.450182-13.195636 15.639273-21.829818 16.709818-25.297455-4.421818-9.495273-30.696727-39.214545-91.997091-81.501091-24.040727-16.570182-48.896-31.813818-69.981091-42.914909-26.507636-13.940364-37.538909-16.337455-40.075636-16.733091-0.977455 0.674909-3.863273 3.095273-8.238545 10.426182-4.910545 8.238545-9.634909 19.130182-14.173091 29.672727-5.608727 13.009455-11.426909 26.437818-18.571636 37.282909-11.566545 17.617455-25.786182 26.554182-42.263273 26.577455-0.302545 0-0.605091 0-0.930909-0.023273-8.005818-0.162909-32.418909-0.674909-98.653091-45.800727-36.561455-24.925091-76.288-57.227636-106.216727-86.434909l-0.488727-0.465455c-29.207273-29.952-61.509818-69.678545-86.411636-106.216727-45.125818-66.280727-45.661091-90.670545-45.824-98.676364-0.372364-16.779636 8.494545-31.255273 26.298182-43.054545 10.891636-7.214545 24.436364-13.056 37.515636-18.734545 10.542545-4.538182 21.457455-9.262545 29.672727-14.173091 7.354182-4.375273 9.774545-7.284364 10.426182-8.238545-0.395636-2.513455-2.792727-13.568-16.733091-40.052364-11.077818-21.085091-26.321455-45.963636-42.914909-70.004364-42.286545-61.300364-71.982545-87.575273-81.477818-91.973818-3.467636 1.070545-12.101818 5.259636-25.320727 16.686545C201.285818 151.179636 185.949091 168.215273 172.194909 186.88c-31.418182 42.612364-50.152727 86.388364-50.152727 117.085091 0 34.443636 22.644364 90.973091 62.138182 155.066182 40.727273 66.094545 97.256727 137.472 159.185455 201.053091L363.915636 680.657455 363.915636 680.657455M363.915636 680.657455" p-id="2017" fill="#bbbbbb"></path></svg>