<?xml version="1.0" standalone="no"?><!DOCTYPE svg PUBLIC "-//W3C//DTD SVG 1.1//EN" "http://www.w3.org/Graphics/SVG/1.1/DTD/svg11.dtd"><svg t="1511635852337" class="icon" style="" viewBox="0 0 1024 1024" version="1.1" xmlns="http://www.w3.org/2000/svg" p-id="3836" xmlns:xlink="http://www.w3.org/1999/xlink" width="32" height="32"><defs><style type="text/css"></style></defs><path d="M857.414449 459.839013c-11.227716 0-19.427468 8.609075-19.427468 20.708648l0 366.92895c0 40.951691-32.461319 74.631768-71.780837 74.631768L189.751157 922.108379c-19.48682 0-41.531905-8.202822-57.936527-21.98778-18.148335-14.71719-28.503171-34.088376-28.503171-53.108568L103.311459 269.045619c0-19.428491 10.354835-40.137139 28.503171-56.94699 17.276479-16.403598 38.915311-26.350135 58.34278-26.350135l310.738184 0c11.634991 0 20.708648-8.201799 20.708648-19.428491 0-11.168364-9.073656-18.962887-20.708648-18.962887L190.157409 147.357116c-69.976748 0-124.888382 53.514821-124.888382 121.689527l0 577.965387c0 32.80822 12.505825 61.774949 36.297694 82.426291 22.453385 20.300348 53.980425 31.119765 88.590688 31.119765l576.918545 0c33.739429 0 61.8343-10.819416 81.261769-30.655184 19.429515-20.300348 29.375028-48.802496 29.375028-82.890872l-0.871857-366.463346C876.841917 468.913693 868.639095 459.839013 857.414449 459.839013zM935.650301 182.722578l-94.234221-94.52484c-12.970406-13.3214-32.397874-21.1149-53.166897-21.1149-19.834744 0-39.320541 7.794523-53.106522 20.707624l-76.550467 90.627067L250.245949 569.08002l-26.409486 228.720192 7.388271 6.515391 222.961024-30.248931 390.255215-408.752498 91.208305-73.816193C964.151425 262.588557 964.561771 211.224726 935.650301 182.722578zM273.97949 754.638179l8.260128-134.660956 124.422777 124.308167L273.97949 754.638179zM812.041052 344.199273 439.062316 719.679993l-134.370337-134.661979 376.410905-374.666168 132.217301 132.101667L812.041052 344.199273zM907.089825 260.029268l-59.622936 59.506279-143.03774-143.270031 59.214636-59.564607c6.459109-6.458085 15.124466-9.946536 24.605398-9.946536 9.540284 0 18.150382 3.489474 24.665773 9.946536l94.174869 94.116541C920.526859 224.197178 920.526859 246.64954 907.089825 260.029268z" p-id="3837" fill="#383d41"></path></svg>