<?xml version="1.0" standalone="no"?><!DOCTYPE svg PUBLIC "-//W3C//DTD SVG 1.1//EN" "http://www.w3.org/Graphics/SVG/1.1/DTD/svg11.dtd"><svg t="1511635545687" class="icon" style="" viewBox="0 0 1024 1024" version="1.1" xmlns="http://www.w3.org/2000/svg" p-id="1937" xmlns:xlink="http://www.w3.org/1999/xlink" width="32" height="32"><defs><style type="text/css"></style></defs><path d="M895.3 815.4l-87.2-151.3c14.4-6 25.8-16.1 33.3-29.1v-0.5c8.4-13.9 11.4-31.3 7.5-48.4l-11.9-54-0.5-0.7 36.3-39 2-1.7c11.9-13.1 17.9-29.8 17.9-46.5 0-15.9-5.9-32.8-17.9-45.7l-38.2-41 12.4-54.4c4-17.4 1-34.8-7.5-48.7-8-14.7-21.4-26.1-38.8-31.3l-53.2-16.4-16.6-53.2c-5.2-16.9-16.4-30.8-30.5-39-14.4-8.2-31.8-11.2-48.7-7.5l-54.2 12.2-0.5 0.2-39.5-36-1.8-2c-12.9-11.9-29.3-17.9-45.9-17.9-16.7 0-33.1 5.9-46.2 17.9L426 118.8l-1.5 0.7-54.6-12.4c-17.1-3.7-34.3-0.7-48.7 7.5-13.9 8.2-25.4 22.1-30.8 39L274 206.2l-0.3 0.5-53.4 16.4c-16.7 5.2-30.6 16.6-38.3 31.3-8.7 13.9-11.4 31.3-8 48.7l12.9 54.4-36.3 39-2 2c-12.2 12.7-18.1 29.3-18.1 45.7 0 16.7 6 33.3 18.1 46.5h0.3l36.8 39.8 1.3 1-12.4 53.4-0.5 1.3c-3.5 17.1-0.7 34.5 8 48.4 7.5 13.4 18.9 23.6 33.3 29.6L128 815.5c-5.5 9.9-2.2 22.9 7.9 28.3 3 2.5 7 3 10.5 3l118.8-1 58.1 103.1c5.5 10.2 18.4 13.7 28.3 8.2 4-2.2 6.7-5 8.5-8.7L450 792.9l15.7 14.6c13.2 11.9 29.6 17.9 46 17.9s33.3-6 46.2-17.9l15.7-14.6 89.7 155.5c2 3.7 4.7 6.5 8.4 8.7 10.4 5.5 22.9 2 28.3-8.2l58.4-103.1 118.5 1c4 0 7.5-0.5 10.7-3 10-5.6 13.5-18.5 7.7-28.4z m-553.7 81l-46.2-82.5c-3.7-6.5-10.4-10.4-18.4-10.4l-94.4 1 73.6-127.7 17.6 5.4 16.6 53.4c5.5 16.9 16.9 30.1 30.8 39 14.4 8 31.6 10.9 48.7 7l43.7-10-72 124.8z m239-194.8l-3 1c-9.4 2.8-18.4 8-25.3 14.9l-2 2-38.7 35.8-40.6-37.8h0.3c-8-7.7-17.9-13.2-28.3-15.9-10.4-3-21.4-3-32.8-1l-53.7 12.9-16.2-52.7c-3.2-11.2-9.2-20.6-16.6-28.3-7.7-7.5-17.4-12.9-28.3-16.6l-52.2-16.2 11.9-54.2c2.5-10.4 2.2-21.8-0.5-32l-1-3.2c-3-9.4-8.2-17.9-14.9-25.6l-2-1.7-35.2-38.8 0.2-0.5 37-39.3c7.5-8.4 12.9-17.9 15.9-28.8v-0.2c2.8-10.4 3-21.4 0.5-32.5l-11.9-53.7 52.2-15.9c10.9-3.7 20.6-9.4 28.3-16.9 7.5-7.5 13.4-17.2 16.6-28.1l0.3-1.2 15.9-51.7 53.7 12.4c11.4 2.5 22.4 2.5 32.8-0.5 10.2-2.7 20.3-8.2 28.3-15.9l2-2 38.3-35.3h0.7l40 37.3c7.9 8 17.9 13.2 28.3 15.9 10.4 3 21.4 3 32.5 0.5l1-0.5 52.7-11.9 16.1 52.6 0.5 0.3h-0.5c7 21.9 23.4 38 45 45l52.4 15.9-12.2 53.7c-2.2 11.2-2.2 22.3 0.5 32.8 2.8 10.4 8.2 19.9 16.1 28.3l37.3 40.2-0.5 1-36.8 39.5c-7.9 8.7-13.4 18.2-16.1 28.6l-0.7 2c-2 10.2-2 20.4 0.3 30.8l0.3 1 11.9 52.6-52.4 16.2c-11.2 3.7-20.6 9.2-28.1 16.6-7.7 7.7-13.4 17.1-16.9 28.3v1l-16.1 51.7-53.9-12.9c-11.1-2-22-2-32.4 1z m165.7 101.9c-8 0-14.7 4-18.4 10.4l-46.5 82.5-71.6-124.7 42.2 9.7 1 0.3c16.4 4 32.6 1.2 46.2-5.7l3-1.2c13.4-7.9 24.3-20.9 29.8-36.8l0.7-2.2 16.6-52.9v-0.5l17.9-5.4 73.3 127.7-94.2-1.2z" p-id="1938" fill="#383d41"></path><path d="M695.4 444.2c0-50.4-20.6-96.4-54.2-129.2-33.1-33.5-79-54.2-129.7-54.2-50.2 0-96.4 20.6-129.7 54.2-33.3 32.8-53.9 78.8-53.9 129.2 0 50.2 20.1 95.4 52.7 128.7l1.2 1.2c33.3 33.6 79.5 53.9 129.7 53.9 50.7 0 96.6-20.4 129.7-53.9 33.5-33 54.2-79 54.2-129.9zM511.5 586.1c-38.8 0-74.5-15.7-100.1-41.5l-1-1c-24.6-25.3-40.5-60.4-40.5-99.4 0-38.8 16.4-74.3 41.5-99.9C437 318.5 472.8 303 511.5 303c39.2 0 74.5 15.4 100.3 41.3 25.3 25.6 41.3 61.1 41.3 99.9 0 39.5-15.6 74.8-41.3 100.4-25.8 25.8-61.1 41.5-100.3 41.5z" p-id="1939" fill="#383d41"></path></svg>