<?xml version="1.0" standalone="no"?><!DOCTYPE svg PUBLIC "-//W3C//DTD SVG 1.1//EN" "http://www.w3.org/Graphics/SVG/1.1/DTD/svg11.dtd"><svg t="1511633463995" class="icon" style="" viewBox="0 0 1024 1024" version="1.1" xmlns="http://www.w3.org/2000/svg" p-id="3556" xmlns:xlink="http://www.w3.org/1999/xlink" width="32" height="32"><defs><style type="text/css"></style></defs><path d="M489.311767 947.889555c5.590322 5.587252 11.181667 11.177574 22.35924 11.177573 11.18269 0 16.768919-5.590322 22.360264-11.177573l262.71647-391.281591c33.536814-50.306756 50.305733-106.20281 50.305733-167.69021 0-178.870854-150.920268-324.204893-335.382467-324.204893-184.461175 0-335.381443 145.33404-335.381443 324.204893 0 61.486376 16.767895 117.382431 50.305732 167.69021l262.716471 391.281591z m22.35924-827.279617c156.511613 0 279.486412 117.383454 279.486412 268.307816 0 50.305733-11.177574 95.024214-39.128159 134.152372L511.671007 880.81081 271.312754 523.070126c-27.946492-39.128159-39.128159-83.84664-39.128159-134.152372 0-150.924361 122.974799-268.307815 279.486412-268.307816z m0 0" p-id="3557" fill="#bbbbbb"></path><path d="M511.671007 539.838022c89.437985 0 156.511613-67.073628 156.511613-156.51059 0-83.84664-67.073628-150.920268-156.511613-150.920268-89.432869 0-156.51059 67.073628-156.51059 156.51059-0.001023 83.84664 67.077721 150.920268 156.51059 150.920268z m0-251.534804c55.896054 0 100.615559 44.718481 100.615559 95.024214 0 55.896054-44.719504 100.614535-100.615559 100.614535s-100.614535-44.718481-100.614535-100.614535c-0.001023-50.305733 44.718481-95.024214 100.614535-95.024214z m0 0" p-id="3558" fill="#bbbbbb"></path></svg>