<?xml version="1.0" standalone="no"?><!DOCTYPE svg PUBLIC "-//W3C//DTD SVG 1.1//EN" "http://www.w3.org/Graphics/SVG/1.1/DTD/svg11.dtd"><svg t="1511633374525" class="icon" style="" viewBox="0 0 1024 1024" version="1.1" xmlns="http://www.w3.org/2000/svg" p-id="2787" xmlns:xlink="http://www.w3.org/1999/xlink" width="32" height="32"><defs><style type="text/css"></style></defs><path d="M512.00256 512.13056" p-id="2788" fill="#bbbbbb"></path><path d="M524.66688 398.27584" p-id="2789" fill="#bbbbbb"></path><path d="M289.92 402.56l450.56 0 0 0-450.56 0 0 0Z" p-id="2790" fill="#bbbbbb"></path><path d="M881.28 174.72l-737.28 0c-43.75936 0-79.36 35.60064-79.36 79.36l0 517.12c0 43.76064 35.60064 79.36 79.36 79.36l737.28 0c43.75936 0 79.36-35.59936 79.36-79.36l0-517.12C960.64 210.32064 925.03936 174.72 881.28 174.72zM860.13696 231.04 528.93056 562.24768c-8.98304 8.98304-23.60064 8.98304-32.5824 0L165.14048 231.04 860.13696 231.04zM904.32 771.2c0 12.70528-10.336 23.04-23.04 23.04l-737.28 0c-12.704 0-23.04-10.33472-23.04-23.04L120.96 266.51008l335.56352 335.56224c30.94144 30.94272 81.28896 30.94272 112.23168 0l335.5648-335.5648L904.32 771.2z" p-id="2791" fill="#bbbbbb"></path></svg>